<?xml version="1.0" encoding="iso-8859-1"?>
<!-- Generator: Adobe Illustrator 19.0.0, SVG Export Plug-In . SVG Version: 6.00 Build 0)  -->
<svg version="1.1" id="Capa_1" xmlns="http://www.w3.org/2000/svg" xmlns:xlink="http://www.w3.org/1999/xlink" x="0px" y="0px"
	 viewBox="0 0 512 512" style="enable-background:new 0 0 512 512;" xml:space="preserve">
<g>
	<path style="fill:#D49E6C;" d="M362.302,462.112c-2.011,0.174-4.029,0.328-6.056,0.462
		C358.274,462.442,360.291,462.284,362.302,462.112z"/>
	<path style="fill:#D49E6C;" d="M474.542,239.84c-10.93-8.313-25.375-23.523-42.102-41.141
		c-6.625-6.977-13.672-14.406-21.156-22.094c-2.305-2.359-5.805-3.07-8.828-1.797c-10.758,4.5-28.344-0.07-42.797-11.156
		c-19.672-15.078-25.789-34.539-20.172-43.922c2.078-3.469,1.242-7.938-1.945-10.422c-14.016-10.914-27.265-20.18-40.5-28.32
		c6.163,3.791,12.337,7.856,18.583,12.188c-55.808-6.312-168.657,11.491-179.77,97.929c-3.514,27.33,3.51,60.255,19.33,93.657
		c1.802-0.343,3.64-0.636,5.518-0.861c24.622-2.946,45.912,5.778,47.552,19.485c1.274,10.653-9.698,21.178-26.207,26.724
		c42.813,59.781,112.336,113.418,198.233,129.859c-5.861,0.898-11.821,1.606-17.856,2.132
		c52.928-4.555,100.095-23.275,123.266-62.323C500.221,375.285,542.37,291.34,474.542,239.84z M207.482,224.714
		c-34.471-9.14-58.268-32.192-53.152-51.488c5.116-19.296,37.209-27.529,71.68-18.389c34.471,9.14,58.268,32.192,53.152,51.488
		C274.046,225.621,241.953,233.854,207.482,224.714z M293.279,392.5c-26.58-0.997-47.645-14.656-47.051-30.51
		c0.595-15.853,22.624-27.897,49.204-26.901c26.58,0.997,47.645,14.656,47.051,30.51C341.888,381.453,319.859,393.497,293.279,392.5
		z M404.128,281.35c-4.217,10.758-22.036,13.835-39.8,6.872c-17.764-6.963-28.745-21.33-24.528-32.088
		c4.217-10.758,22.036-13.835,39.8-6.872C397.364,256.225,408.345,270.591,404.128,281.35z M447.599,375.345
		c-13.48,12.904-30.555,16.944-38.138,9.023c-7.583-7.921-2.802-24.803,10.679-37.708s30.555-16.944,38.138-9.023
		C465.86,345.559,461.079,362.441,447.599,375.345z"/>
	<path style="fill:#B68052;" d="M182.047,330.111c16.509-5.546,27.481-16.071,26.207-26.724
		c-1.64-13.707-22.93-22.431-47.552-19.485c-1.878,0.225-3.716,0.518-5.518,0.861c-15.819-33.402-22.844-66.327-19.33-93.657
		c11.113-86.438,123.962-104.241,179.77-97.929c-6.246-4.332-12.419-8.397-18.583-12.188
		c-84.141-51.781-150.641-31.734-204.594-5.289C9.464,116.379-13.474,225.941,7.081,308.387
		C28.682,394.988,127.87,421.129,223.792,446.41l14.969,3.961c30.641,8.141,64.219,12.883,96.82,12.875
		c1.919,0,3.834-0.017,5.745-0.051c1.726-0.031,3.448-0.077,5.166-0.135c1.204-0.041,2.404-0.094,3.604-0.149
		c0.462-0.021,0.926-0.038,1.387-0.061c1.503-0.075,3.003-0.161,4.499-0.259c0.088-0.006,0.177-0.011,0.265-0.017
		c2.026-0.134,4.045-0.288,6.056-0.462c0.041-0.003,0.081-0.008,0.121-0.011c6.035-0.525,11.995-1.233,17.856-2.132
		C294.383,443.528,224.859,389.892,182.047,330.111z M146.221,84.121c9.563-3.953,25.703-5.555,36.813-0.758
		c4.055,1.758,5.914,6.461,4.164,10.523c-1.75,4.039-6.43,5.922-10.523,4.164c-6.211-2.695-17.984-1.766-24.344,0.852
		c-1,0.414-2.031,0.609-3.055,0.609c-3.141,0-6.117-1.859-7.391-4.945C140.198,90.481,142.135,85.809,146.221,84.121z
		 M22.792,147.119c6.725-13.484,15.1-25.938,25.014-37.086c11.992-3.754,24.499-5.168,35.774-6.427
		c12.875-1.43,25.039-2.789,33.781-7.031c3.984-1.922,8.758-0.273,10.688,3.703c1.93,3.969,0.273,8.758-3.703,10.688
		c-11.219,5.445-24.711,6.953-38.992,8.547C61.432,122.175,36.693,124.943,22.792,147.119z M115.495,268.723
		c-0.352,4.406-4.313,7.617-8.594,7.359c-6.141-0.5-9.117,1.125-11.016,2.578c-1.453,1.117-3.164,1.656-4.859,1.656
		c-2.406,0-4.781-1.078-6.352-3.133c-2.695-3.5-2.031-8.523,1.477-11.211c6-4.617,13.18-6.531,21.984-5.844
		C112.542,260.473,115.839,264.324,115.495,268.723z M56.569,196.091c3.128-22.097,15.63-38.6,27.926-36.859
		c12.295,1.74,19.727,21.064,16.599,43.162c-3.128,22.097-15.63,38.6-27.926,36.859C60.873,237.512,53.441,218.188,56.569,196.091z
		 M118.807,345.449c-0.43,4.102-3.906,7.156-7.945,7.156c-0.281,0-0.563-0.016-0.852-0.047c-14.18-1.492-26.695-9.305-34.336-21.422
		c-7.203-11.43-8.82-25.047-4.453-37.367c1.477-4.172,6.063-6.352,10.211-4.867c4.164,1.477,6.344,6.047,4.867,10.211
		c-2.719,7.672-1.656,16.234,2.914,23.492c5.008,7.945,13.203,13.063,22.484,14.047
		C116.089,337.113,119.276,341.051,118.807,345.449z M119.089,314.055c-1.516-12.667,14.293-25.138,36.131-29.286
		c7.185,15.169,16.174,30.424,26.833,45.311c-4.742,1.595-9.915,2.803-15.413,3.46C142.018,336.486,120.729,327.762,119.089,314.055
		z M249.371,452.833c-5.343-5.828-9.728-11.995-13.876-17.869c-7.75-10.984-14.445-20.469-25.734-25.664
		c-14.523-6.68-34.406-15.828-37.789-35.5c-0.75-4.359,2.172-8.492,6.523-9.242c4.453-0.727,8.492,2.18,9.242,6.523
		c1.961,11.375,16.789,18.203,28.711,23.688c15.195,6.992,23.797,19.18,32.117,30.969c10.164,14.391,19.758,27.992,41.531,34.352
		c0.133,0.039,0.224,0.141,0.354,0.186C276.472,458.535,262.743,455.98,249.371,452.833z"/>
	
		<ellipse transform="matrix(0.0375 -0.9993 0.9993 0.0375 -80.214 644.3116)" style="fill:#B68052;" cx="294.356" cy="363.795" rx="28.725" ry="48.161"/>
	
		<ellipse transform="matrix(0.365 -0.931 0.931 0.365 -13.9916 516.9703)" style="fill:#B68052;" cx="371.964" cy="268.742" rx="20.923" ry="34.547"/>
	
		<ellipse transform="matrix(-0.6915 -0.7224 0.7224 -0.6915 473.1166 924.0533)" style="fill:#B68052;" cx="433.869" cy="361.003" rx="19.854" ry="33.789"/>
	
		<ellipse transform="matrix(0.9901 0.1401 -0.1401 0.9901 28.7005 -9.0814)" style="fill:#9D693C;" cx="78.831" cy="199.242" rx="22.484" ry="40.409"/>
	<path style="fill:#9D693C;" d="M149.276,99.512c1.023,0,2.055-0.195,3.055-0.609c6.359-2.617,18.133-3.547,24.344-0.852
		c4.094,1.758,8.773-0.125,10.523-4.164c1.75-4.063-0.109-8.766-4.164-10.523c-11.109-4.797-27.25-3.195-36.813,0.758
		c-4.086,1.688-6.023,6.359-4.336,10.445C143.159,97.652,146.135,99.512,149.276,99.512z"/>
	<path style="fill:#9D693C;" d="M111.698,336.652c-9.281-0.984-17.477-6.102-22.484-14.047c-4.57-7.258-5.633-15.82-2.914-23.492
		c1.477-4.164-0.703-8.734-4.867-10.211c-4.148-1.484-8.734,0.695-10.211,4.867c-4.367,12.32-2.75,25.938,4.453,37.367
		c7.641,12.117,20.156,19.93,34.336,21.422c0.289,0.031,0.57,0.047,0.852,0.047c4.039,0,7.516-3.055,7.945-7.156
		C119.276,341.051,116.089,337.113,111.698,336.652z"/>
	<path style="fill:#9D693C;" d="M86.151,265.973c-3.508,2.688-4.172,7.711-1.477,11.211c1.57,2.055,3.945,3.133,6.352,3.133
		c1.695,0,3.406-0.539,4.859-1.656c1.898-1.453,4.875-3.078,11.016-2.578c4.281,0.258,8.242-2.953,8.594-7.359
		c0.344-4.398-2.953-8.25-7.359-8.594C99.331,259.441,92.151,261.356,86.151,265.973z"/>
	<path style="fill:#9D693C;" d="M155.219,284.769c-21.837,4.148-37.646,16.619-36.131,29.286
		c1.64,13.708,22.93,22.432,47.552,19.485c5.498-0.658,10.671-1.865,15.413-3.46C171.394,315.193,162.404,299.938,155.219,284.769z"
		/>
	
		<ellipse transform="matrix(0.9666 0.2563 -0.2563 0.9666 55.8774 -49.2117)" style="fill:#B68052;" cx="216.746" cy="189.775" rx="64.573" ry="36.146"/>
	<path style="fill:#9D693C;" d="M124.346,110.965c3.977-1.93,5.633-6.719,3.703-10.688c-1.93-3.977-6.703-5.625-10.688-3.703
		c-8.742,4.242-20.906,5.602-33.781,7.031c-11.276,1.259-23.782,2.673-35.774,6.427c-9.915,11.148-18.289,23.602-25.014,37.086
		c13.9-22.176,38.64-24.944,62.562-27.607C99.635,117.918,113.128,116.41,124.346,110.965z"/>
	<path style="fill:#9D693C;" d="M248.565,425.738c-8.32-11.789-16.922-23.977-32.117-30.969
		c-11.922-5.484-26.75-12.313-28.711-23.688c-0.75-4.344-4.789-7.25-9.242-6.523c-4.352,0.75-7.273,4.883-6.523,9.242
		c3.383,19.672,23.266,28.82,37.789,35.5c11.289,5.195,17.984,14.68,25.734,25.664c4.148,5.874,8.533,12.041,13.876,17.869
		c13.372,3.146,27.101,5.702,41.08,7.442c-0.13-0.045-0.221-0.147-0.354-0.186C268.323,453.73,258.729,440.129,248.565,425.738z"/>
</g>
<g>
</g>
<g>
</g>
<g>
</g>
<g>
</g>
<g>
</g>
<g>
</g>
<g>
</g>
<g>
</g>
<g>
</g>
<g>
</g>
<g>
</g>
<g>
</g>
<g>
</g>
<g>
</g>
<g>
</g>
</svg>
